g Wedge

v 0.5 1 1 
v 0.5 1 1 
v 0.5 -1 -1 
v 0.5 -1 1 
v 0.5 1 1 
v -0.5 1 1 
v 0.5 -1 1 
v -0.5 -1 1 
v -0.5 1 1 
v -0.5 1 1 
v -0.5 -1 1 
v -0.5 -1 -1 
v -0.5 -1 -1 
v 0.5 -1 -1 
v -0.5 -1 1 
v 0.5 -1 1 
v -0.5 1 1 
v 0.5 1 1 
v -0.5 -1 -1 
v 0.5 -1 -1 

vn 1 0 0 
vn 1 0 0 
vn 1 0 0 
vn 1 0 0 
vn 0 0 1 
vn 0 0 1 
vn 0 0 1 
vn 0 0 1 
vn -1 0 0 
vn -1 0 0 
vn -1 0 0 
vn -1 0 0 
vn 0 -1 0 
vn 0 -1 0 
vn 0 -1 0 
vn 0 -1 0 
vn 0 0.708661 -0.708661 
vn 0 0.708661 -0.708661 
vn 0 0.708661 -0.708661 
vn 0 0.708661 -0.708661 

vt 7.25 -5 
vt 7.25 -5 
vt 7.5 -5.25 
vt 7.25 -5.25 
vt 7.375 -5 
vt 7.25 -5 
vt 7.375 -5.25 
vt 7.25 -5.25 
vt 7.5 -5 
vt 7.5 -5 
vt 7.5 -5.25 
vt 7.25 -5.25 
vt 7.375 -5 
vt 7.25 -5 
vt 7.375 -5.25 
vt 7.25 -5.25 
vt 7.375 -5 
vt 7.25 -5 
vt 7.375 -5.35355 
vt 7.25 -5.35355 

usemtl Part1Mtl

f 1/1/1 2/2/2 3/3/3 
f 3/3/3 2/2/2 4/4/4 
f 5/5/5 6/6/6 7/7/7 
f 7/7/7 6/6/6 8/8/8 
f 9/9/9 10/10/10 11/11/11 
f 11/11/11 10/10/10 12/12/12 
f 13/13/13 14/14/14 15/15/15 
f 15/15/15 14/14/14 16/16/16 
f 17/17/17 18/18/18 19/19/19 
f 19/19/19 18/18/18 20/20/20 

